<svg width="15" height="10" viewBox="0 0 15 10" fill="none" xmlns="http://www.w3.org/2000/svg">
<path d="M5.09375 5.70312L12.3125 5.70312L9.99219 8.02343C9.71094 8.30468 9.71094 8.74999 9.99219 9.00781C10.2734 9.28906 10.7188 9.28906 10.9766 9.00781L14.4922 5.49218C14.6328 5.35156 14.7031 5.16406 14.7031 5C14.7031 4.8125 14.6328 4.64843 14.4922 4.50781L10.9766 0.992186C10.8359 0.851561 10.6484 0.781248 10.4844 0.781248C10.3203 0.781248 10.1328 0.851561 9.99219 0.992186C9.71094 1.27344 9.71094 1.71875 9.99219 1.97656L12.3125 4.29687L5.09375 4.29687C4.69531 4.29687 4.39063 4.60156 4.39063 5C4.39063 5.39843 4.69531 5.70312 5.09375 5.70312ZM1.57813 4.29687C1.39165 4.29687 1.2128 4.37095 1.08094 4.50281C0.94908 4.63468 0.875001 4.81352 0.875001 5C0.875001 5.18648 0.94908 5.36532 1.08094 5.49718C1.2128 5.62904 1.39165 5.70312 1.57813 5.70312C1.76461 5.70312 1.94345 5.62904 2.07531 5.49718C2.20717 5.36532 2.28125 5.18648 2.28125 5C2.28125 4.81352 2.20717 4.63468 2.07531 4.50281C1.94345 4.37095 1.76461 4.29687 1.57813 4.29687Z" fill="#BD9457"/>
</svg>
