<svg width="15" height="10" viewBox="0 0 15 10" fill="none" xmlns="http://www.w3.org/2000/svg">
<path d="M4.51563 5.70312L11.7344 5.70312L9.41406 8.02344C9.13281 8.30469 9.13281 8.75 9.41406 9.00781C9.69531 9.28906 10.1406 9.28906 10.3984 9.00781L13.9141 5.49219C14.0547 5.35156 14.125 5.16406 14.125 5C14.125 4.8125 14.0547 4.64844 13.9141 4.50781L10.3984 0.992188C10.2578 0.851563 10.0703 0.78125 9.90625 0.78125C9.74219 0.78125 9.55469 0.851563 9.41406 0.992188C9.13281 1.27344 9.13281 1.71875 9.41406 1.97656L11.7344 4.29687L4.51563 4.29687C4.11719 4.29687 3.8125 4.60156 3.8125 5C3.8125 5.39844 4.11719 5.70312 4.51563 5.70312ZM1 4.29687C0.81352 4.29687 0.634677 4.37095 0.502816 4.50281C0.370954 4.63468 0.296875 4.81352 0.296875 5C0.296875 5.18648 0.370954 5.36532 0.502816 5.49718C0.634677 5.62905 0.81352 5.70312 1 5.70312C1.18648 5.70312 1.36532 5.62905 1.49718 5.49718C1.62905 5.36532 1.70313 5.18648 1.70313 5C1.70313 4.81352 1.62905 4.63468 1.49718 4.50281C1.36532 4.37095 1.18648 4.29687 1 4.29687Z" fill="black"/>
</svg>
