<svg width="16" height="16" viewBox="0 0 16 16" fill="none" xmlns="http://www.w3.org/2000/svg">
<path fill-rule="evenodd" clip-rule="evenodd" d="M13.3149 2.68994C11.9038 1.27881 10.0288 0.5 8.03174 0.5C3.91553 0.5 0.563477 3.84961 0.563477 7.96582C0.561035 9.28174 0.905274 10.5659 1.55957 11.6987L0.5 15.5684L4.45996 14.5283C5.54883 15.124 6.7793 15.4365 8.0293 15.439H8.03174C12.1479 15.439 15.4976 12.0894 15.5 7.9707C15.5 5.97607 14.7236 4.10107 13.3149 2.68994ZM8.03174 14.1768H8.0293C6.91602 14.1768 5.82227 13.8765 4.87012 13.3125L4.64307 13.1782L2.29199 13.7935L2.91943 11.5034L2.77295 11.269C2.15039 10.2803 1.82324 9.1377 1.82324 7.96582C1.82324 4.54541 4.60889 1.76221 8.03418 1.76221C9.69189 1.76221 11.2495 2.40918 12.4214 3.58106C13.5933 4.75537 14.2378 6.31299 14.2378 7.9707C14.2378 11.3936 11.4521 14.1768 8.03174 14.1768ZM11.4351 9.52832C11.2495 9.43555 10.3315 8.98389 10.1606 8.92285C9.98975 8.85938 9.86523 8.83008 9.74072 9.01562C9.61621 9.20361 9.25977 9.62354 9.1499 9.74805C9.04248 9.87012 8.93262 9.88721 8.74707 9.79443C8.55908 9.70166 7.9585 9.50391 7.24561 8.8667C6.69141 8.37353 6.31543 7.76074 6.20801 7.5752C6.09814 7.38721 6.1958 7.28711 6.28857 7.19434C6.37402 7.11133 6.47656 6.97705 6.56934 6.86719C6.66211 6.75977 6.69385 6.68164 6.75732 6.55713C6.81836 6.43262 6.78662 6.32275 6.74023 6.22998C6.69385 6.13721 6.32031 5.2168 6.16406 4.84326C6.0127 4.47949 5.85889 4.53076 5.74414 4.52344C5.63672 4.51856 5.51221 4.51856 5.3877 4.51856C5.26318 4.51856 5.06055 4.56494 4.88965 4.75293C4.71875 4.93848 4.23779 5.39014 4.23779 6.30811C4.23779 7.22607 4.90674 8.11475 4.99951 8.23926C5.09228 8.36133 6.31543 10.2461 8.18799 11.0542C8.63232 11.2471 8.979 11.3618 9.25 11.4473C9.69678 11.5889 10.1045 11.5693 10.4268 11.5229C10.7856 11.4692 11.5303 11.0713 11.6865 10.6343C11.8403 10.1997 11.8403 9.82617 11.7939 9.74805C11.7476 9.66992 11.623 9.62354 11.4351 9.52832Z" fill="#7491A5" fill-opacity="0.6"/>
</svg>
